HIERARCHY
ROOT Hips
{
	OFFSET -80.168388 91.772041 -268.984589
	CHANNELS 6 Xposition Yposition Zposition Zrotation Yrotation Xrotation 
	JOINT LeftUpLeg
	{
		OFFSET 0.103457 1.857818 10.548502
		CHANNELS 3 Xrotation Yrotation Zrotation
		JOINT LeftLeg
		{
			OFFSET 43.500000 -0.000011 -0.000004
			CHANNELS 3 Xrotation Yrotation Zrotation
			JOINT LeftFoot
			{
				OFFSET 42.372192 -0.000004 -0.000008
				CHANNELS 3 Xrotation Yrotation Zrotation
				JOINT LeftToe
				{
					OFFSET 17.300014 0.000006 0.000001
					CHANNELS 3 Xrotation Yrotation Zrotation
					End Site
					{
						OFFSET 0.000000 0.000000 0.000000
					}
				}
			}
		}
	}
	JOINT RightUpLeg
	{
		OFFSET 0.103457 1.857817 -10.548505
		CHANNELS 3 Xrotation Yrotation Zrotation
		JOINT RightLeg
		{
			OFFSET 43.500046 -0.000004 0.000011
			CHANNELS 3 Xrotation Yrotation Zrotation
			JOINT RightFoot
			{
				OFFSET 42.372257 0.000000 0.000015
				CHANNELS 3 Xrotation Yrotation Zrotation
				JOINT RightToe
				{
					OFFSET 17.300003 -0.000000 0.000002
					CHANNELS 3 Xrotation Yrotation Zrotation
					End Site
					{
						OFFSET 0.000000 0.000000 0.000000
					}
				}
			}
		}
	}
	JOINT Spine
	{
		OFFSET 6.901961 -2.603721 -0.000001
		CHANNELS 3 Xrotation Yrotation Zrotation
		JOINT Spine1
		{
			OFFSET 12.588108 0.000002 -0.000001
			CHANNELS 3 Xrotation Yrotation Zrotation
			JOINT Spine2
			{
				OFFSET 12.343199 -0.000020 0.000006
				CHANNELS 3 Xrotation Yrotation Zrotation
				JOINT Neck
				{
					OFFSET 25.832905 0.000017 0.000000
					CHANNELS 3 Xrotation Yrotation Zrotation
					JOINT Head
					{
						OFFSET 11.766604 -0.000006 0.000004
						CHANNELS 3 Xrotation Yrotation Zrotation
						End Site
						{
							OFFSET 0.000000 0.000000 0.000000
						}
					}
				}
				JOINT LeftShoulder
				{
					OFFSET 19.745903 -1.480350 6.000100
					CHANNELS 3 Xrotation Yrotation Zrotation
					JOINT LeftArm
					{
						OFFSET 11.284130 -0.000016 -0.000016
						CHANNELS 3 Xrotation Yrotation Zrotation
						JOINT LeftForeArm
						{
							OFFSET 33.000046 0.000004 0.000031
							CHANNELS 3 Xrotation Yrotation Zrotation
							JOINT LeftHand
							{
								OFFSET 25.199999 0.000027 0.000001
								CHANNELS 3 Xrotation Yrotation Zrotation
								End Site
								{
									OFFSET 0.000000 0.000000 0.000000
								}
							}
						}
					}
				}
				JOINT RightShoulder
				{
					OFFSET 19.746094 -1.480375 -6.000080
					CHANNELS 3 Xrotation Yrotation Zrotation
					JOINT RightArm
					{
						OFFSET 11.284131 -0.000016 -0.000017
						CHANNELS 3 Xrotation Yrotation Zrotation
						JOINT RightForeArm
						{
							OFFSET 33.000095 0.000009 0.000020
							CHANNELS 3 Xrotation Yrotation Zrotation
							JOINT RightHand
							{
								OFFSET 25.199789 0.000132 0.000423
								CHANNELS 3 Xrotation Yrotation Zrotation
								End Site
								{
									OFFSET 0.000000 0.000000 0.000000
								}
							}
						}
					}
				}
			}
		}
	}
}
MOTION
Frames: 8
Frame Time: 0.033333
-345.489807 88.149513 -401.071991 78.614063 -0.196092 -43.466310 -173.682777 0.276702 169.083368 -36.794287 -3.848677 1.454581 84.264631 -0.994704 -0.559283 21.454550 0.003107 0.000017 149.702843 3.980392 -173.052432 -46.931521 0.170876 7.908159 73.282076 -4.615026 3.643110 21.454551 -0.003085 0.000001 8.821027 -0.580395 -3.213247 7.656270 -0.947206 -6.457964 7.340342 -0.986245 -6.452163 3.910280 4.496401 -8.502662 -7.628238 -3.699626 -7.060698 177.217099 -76.902254 1.370179 -9.932497 51.988217 19.538203 -96.352201 -1.664198 2.747567 -3.324697 -6.341354 17.886741 -160.142801 75.753703 21.788942 38.652560 -47.954017 -54.590833 -93.122362 3.171650 -2.665570 -0.511434 9.032736 -29.939099 
-349.961792 89.611031 -406.538605 79.119060 0.940925 -43.752805 -169.579131 -0.061495 167.276688 -33.612727 -3.250483 2.584530 76.684719 -2.494960 -2.826649 21.454557 0.003110 0.000015 153.019146 3.843402 -168.365365 -28.472542 -0.449109 7.223197 72.691593 -3.917600 4.278170 21.454548 -0.003087 -0.000001 8.359993 -0.389842 -3.275620 6.724207 -0.589208 -6.568330 6.408365 -0.628904 -6.564676 3.266812 5.410538 -8.895618 -8.017830 -4.920752 -6.945991 -177.893971 -76.820319 -3.615911 -6.883093 52.048808 24.422808 -100.090507 -1.020982 2.869989 -4.896529 -6.331509 17.379760 -158.442029 75.907697 23.525012 43.123482 -44.431535 -57.055172 -93.951376 3.087763 -2.696565 -0.934768 7.840214 -29.569091 
-354.282104 90.366692 -411.868011 78.833613 2.116093 -44.045100 -167.861092 -0.156686 165.631240 -35.611360 -1.811295 3.946079 71.445165 -4.143865 -4.171318 21.454567 0.003111 0.000016 155.275157 4.300098 -164.824472 -17.712197 -0.771239 8.959841 73.844720 -5.583276 2.850936 21.454553 -0.003092 0.000002 7.944010 -0.422127 -3.101422 5.894000 -0.686414 -6.220292 5.577926 -0.724029 -6.216066 3.949686 5.196645 -9.504564 -8.063577 -5.237364 -7.555091 -173.895018 -76.562295 -7.695021 -3.510501 50.977004 29.170389 -102.375998 -0.704765 2.949858 -5.934405 -6.929984 18.506690 -156.675141 75.580046 25.337027 46.315311 -42.176292 -57.906672 -94.318581 3.081122 -2.712438 -1.090126 6.104522 -30.362421 
-358.581909 90.080437 -417.103699 77.715504 2.962781 -44.501585 -168.454062 0.186902 166.475220 -42.910428 -0.192424 4.009057 68.692203 -4.186367 -3.618046 21.454565 0.003111 0.000016 156.122907 5.406207 -162.139798 -17.427369 -1.719737 10.938484 73.822631 -7.305137 1.627540 21.454555 -0.003087 0.000000 7.670045 -0.577096 -2.738819 5.352221 -1.027627 -5.501438 5.035664 -1.060914 -5.495162 5.426704 3.788377 -10.211666 -7.845475 -4.668404 -8.718895 -171.246571 -76.395215 -10.398636 0.580395 49.728613 32.996903 -102.989199 -0.619845 2.971215 -5.845306 -7.193390 19.166390 -154.413625 75.049374 27.660991 47.240573 -41.315398 -57.290046 -94.097030 3.131637 -2.706116 -0.754596 4.042087 -31.433514 
-362.851593 88.431534 -422.384796 76.353961 2.084174 -45.505889 -169.556304 -0.242404 169.102657 -53.537850 0.650641 1.694883 69.965227 -2.867211 -4.702780 21.454560 0.003111 0.000016 156.512023 5.860991 -161.604844 -24.320996 -1.720241 12.824523 69.629264 -11.274043 -6.508460 21.454550 -0.003098 -0.000001 7.803942 -0.518332 -2.165429 5.612959 -0.931539 -4.353438 5.295818 -0.957924 -4.347751 6.812533 2.120473 -10.998863 -7.918225 -3.910834 -9.998691 -169.206967 -76.224781 -12.481824 4.932584 48.902297 35.240289 -101.804612 -0.720115 2.925479 -4.524773 -6.719232 18.693159 -153.250157 74.497454 28.864980 44.970143 -41.684467 -54.565753 -92.987780 3.253418 -2.665302 0.311886 1.627415 -32.198611 
-366.417603 86.735397 -427.660309 76.848603 -1.984321 -47.006403 -170.894816 -3.212795 172.010692 -64.955208 1.279008 -2.308976 71.307605 -0.284277 -5.736740 21.454567 0.003108 0.000015 157.312493 2.978613 -163.972215 -34.808164 -0.204195 14.341650 74.426816 -12.608625 -8.998330 21.454553 -0.003102 0.000000 8.419640 0.309138 -1.398983 6.818044 0.699960 -2.777383 6.500340 0.683034 -2.781558 7.587195 1.190511 -11.794050 -8.654295 -3.601178 -11.019980 -166.769287 -75.518601 -14.974915 8.055491 49.112004 35.372105 -98.333216 -1.174971 2.802140 -2.836794 -6.595515 18.426218 -154.941229 73.961906 27.146010 37.727742 -43.571491 -48.048267 -90.492056 3.540046 -2.574548 1.921109 -0.674014 -33.453467 
-369.682800 84.758522 -433.147186 78.023450 -6.557448 -48.717806 -173.364367 -6.360796 174.688276 -76.451195 2.520658 -6.313722 71.714978 3.066871 -4.267232 21.454562 0.003109 0.000012 159.127234 -0.909502 -166.536937 -44.443962 2.191003 15.973678 82.627845 -12.678786 -8.008713 21.454553 -0.003093 -0.000001 9.211923 1.363984 -0.736668 8.396790 2.777770 -1.372868 8.078388 2.769294 -1.389640 7.805092 1.241621 -12.408230 -9.876373 -3.599832 -11.635663 -163.952571 -74.137646 -17.867182 10.293681 50.107490 34.733872 -92.035686 -2.217791 2.592923 -1.772978 -8.074471 19.224452 -159.716638 73.500895 22.259033 25.510198 -45.144572 -38.847179 -86.740705 4.847045 -2.500124 3.318214 -1.848345 -36.654733 
-372.470886 83.432167 -438.279297 79.952883 -9.778096 -50.721497 -178.554081 -8.174399 178.007857 -86.640697 3.874860 -9.076931 71.658253 5.556668 -2.515130 21.454565 0.003112 0.000013 162.080198 -4.481299 -166.595226 -49.068304 3.649353 15.452905 88.587062 -11.723038 -7.749983 21.454553 -0.003092 -0.000001 9.789913 2.300440 -0.226610 9.569451 4.611674 -0.262261 9.250227 4.609873 -0.290167 7.990805 1.848342 -12.660773 -11.083591 -3.340154 -11.900444 -161.554628 -72.771055 -20.341497 12.103596 51.469898 36.253391 -83.651171 -5.469397 2.447843 -1.370538 -10.855950 19.632151 -166.300175 73.234347 15.505979 10.519799 -45.500391 -28.974475 -83.268148 6.942544 -2.494252 3.885138 -1.834071 -41.552159 
